<?xml version="1.0" encoding="UTF-8"?>
<!-- Generator: Adobe Illustrator 24.0.0, SVG Export Plug-In . SVG Version: 6.00 Build 0)  -->
<svg version="1.1" id="Layer_1" xmlns="http://www.w3.org/2000/svg" xmlns:xlink="http://www.w3.org/1999/xlink" x="0px" y="0px" viewBox="0 0 1345.3 310" style="enable-background:new 0 0 1345.3 310;" xml:space="preserve">
<style type="text/css">
	.st0{fill:none;}
	.st1{fill:#ACABAC;}
	.st2{fill:#EC424D;}
</style>
<g>
	<path class="st0" d="M1146.4,72.5c-24-54.1-84.3-82.4-140.5-68.2c-50.5,12.8-89.1,57.5-90.8,113.2c-1.5,49.6,28.3,98,80,116.7   c24.9,9,50.3,9.6,75.5,1.7c34.9-11,59.9-33.5,75.8-66.5c0,0.8,0,1.7,0,2.5c0,22.2,0,44.3-0.1,66.5c0,2.3,0.4,3.1,3,3.1   c22.8-0.1,45.6-0.1,68.5,0c2.3,0,2.9-0.5,2.9-2.9c-0.1-28.2-0.1-56.5-0.1-84.7c0-0.9,0-1.7,0-3.3c0.8,1.3,1.3,2,1.7,2.8   c16.1,28.6,32.2,57.2,48.2,85.8c0.9,1.7,1.9,2.3,3.9,2.3c22.6-0.1,45.3-0.1,67.9,0c2.2,0,3-0.4,3-2.8c-0.1-78.3-0.1-156.6,0-234.9   c0-2.2-0.5-2.8-2.8-2.8c-22.9,0.1-45.8,0.1-68.7,0c-2.5,0-2.9,0.7-2.9,3c0.1,28.2,0.1,56.5,0.1,84.7c0,0.9,0,1.8,0,2.7   c-0.8-0.6-1.2-1.2-1.6-1.8c-16.1-28.6-32.1-57.2-48.1-85.8c-1-1.8-2.1-2.2-4-2.2c-22.7,0.1-45.5,0.1-68.2,0c-2.2,0-2.8,0.4-2.8,2.7   c0.1,15.8,0.1,31.6,0.1,47.5C1146.4,58.6,1146.4,65.5,1146.4,72.5z M125.4,110.4c-0.4-0.9-0.5-1.2-0.6-1.4   C112.5,73.8,100.2,38.5,87.8,3.3c-0.5-1.5-0.9-2.8-3.2-2.7c-22.4,0.1-44.8,0.1-67.1,0c-1.7,0-2.2,0.4-2.3,2.2   c-0.7,11.8-1.5,23.5-2.2,35.3c-1.2,18.2-2.4,36.3-3.6,54.5c-1,15.3-1.9,30.6-2.9,46c-1.2,18-2.4,36-3.5,54   c-1,15.4-1.9,30.8-2.9,46.2c-0.1,2.1,0.1,2.7,2.3,2.7c23.3-0.1,46.5-0.1,69.8,0c2,0,2.6-0.6,2.7-2.5c0.3-6.9,0.8-13.7,1.2-20.6   c0.4-5.9,0.8-11.8,1.2-17.8c0.9,0.1,0.8,0.7,0.9,1.2c4.3,12.5,8.7,24.9,12.9,37.4c0.6,1.7,1.3,2.3,3.2,2.3   c20.9-0.1,41.7-0.1,62.6,0c1.9,0,2.8-0.6,3.4-2.4c2.8-8.6,5.7-17.1,8.6-25.6c0.9-2.7,1.9-5.4,2.8-8.1c1.1,11.4,1.8,22.7,2.5,34   c0.1,1.4,0.4,2,2,2c23.5,0,47.1,0,70.6,0c1.5,0,2-0.4,1.9-1.9c-0.7-11.5-1.3-23-2-34.5c-1.2-20.2-2.4-40.4-3.6-60.7   c-0.8-13.4-1.5-26.7-2.3-40.1c-1.2-20.1-2.4-40.3-3.6-60.4c-0.8-13.5-1.6-26.9-2.3-40.4c-0.1-2.2-0.8-2.9-3.2-2.9   c-22,0.1-44,0.1-66.1,0c-2,0-3,0.6-3.6,2.5c-9.5,27.9-19,55.8-28.6,83.7C130.9,94.5,128.3,102.1,125.4,110.4z M568.5,87.4   c0,28.1,0,56.1,0,84.2c0,1.2,0,2.3,1,3.4c19,21.5,37.9,43.1,56.7,64.7c1.1,1.3,2.3,1.7,3.9,1.7c33,0,66.1,0,99.1,0   c2,0,2.7-0.4,2.7-2.6c-0.1-23-0.1-45.9,0-68.9c0-2.4-0.7-2.9-3-2.9c-26.3,0.1-52.6,0.1-78.9,0c-2.2,0-5.1,1-6.5-0.4   c-1.4-1.4-0.2-4.2-0.5-6.4c-0.3-2.1,0.5-2.6,2.6-2.6c22.2,0.1,44.4,0,66.6,0.1c2.2,0,3-0.3,3-2.8c-0.1-23-0.1-45.9,0-68.9   c0-2.2-0.4-2.8-2.7-2.8c-21.5,0.1-43,0.1-64.4,0.1c-5,0-4.8,0-5-5.1c-0.1-2.4,0.6-2.9,2.9-2.9c27.6,0.1,55.1,0,82.7,0.1   c2.5,0,3.3-0.4,3.3-3.1c-0.1-22.7-0.1-45.4,0-68.1c0-2.6-0.6-3.2-3.2-3.2c-52.5,0.1-104.9,0.2-157.4,0.2c-2.4,0-2.9,0.5-2.9,2.9   C568.6,31.8,568.5,59.6,568.5,87.4z M431.3,151.7c0.2-0.1,0.3-0.1,0.5-0.2c0.5,0.7,0.9,1.4,1.4,2.2c16,28.5,32,57,48,85.6   c0.9,1.5,1.8,2.2,3.7,2.2c42.8-0.1,85.6-0.1,128.4-0.1c0.7,0,1.6,0.2,2.4-0.3c-0.3-0.4-0.5-0.6-0.7-0.9   c-23.3-26.3-46.6-52.6-69.8-78.9c-21.2-24-42.4-47.9-63.6-71.9c-25.5-28.8-51-57.5-76.4-86.3c-1.1-1.2-2.1-1.6-3.7-1.6   c-13.8,0.1-27.6,0.1-41.4,0c-2.6,0-3.2,0.6-3.2,3.2c0.1,55.2,0.1,110.5,0.1,165.7c0,0.5,0.1,1.1,0,1.6c-0.2,1.4,0.3,1.7,1.8,1.5   c23.5-3.2,46.9-6.3,70.4-9.3c2-0.3,2.3-1,2.2-2.7C431.2,158.3,431.3,155,431.3,151.7z M339.6,121c0-39.1,0-78.3,0.1-117.4   c0-2.3-0.5-3-2.9-3c-22.9,0.1-45.8,0.1-68.7,0c-2.4,0-2.9,0.7-2.9,3c0.1,78.4,0.1,156.7,0,235.1c0,2.2,0.6,2.8,2.8,2.8   c22.9-0.1,45.8-0.1,68.7,0c2.5,0,3.1-0.6,3.1-3.1C339.6,199.2,339.6,160.1,339.6,121z M555.6,158.7c0.1-0.9,0.1-1.2,0.1-1.6   c0-51.4,0-102.8,0.1-154.1c0-2-0.8-2.1-2.4-2.1c-23.2,0-46.4,0.1-69.5,0c-2.1,0-2.5,0.6-2.5,2.5c0.1,23.1,0.1,46.3,0,69.4   c0,1.5,0.4,2.7,1.5,3.8c10.4,11.7,20.7,23.4,31.1,35.1C527.7,127.3,541.5,142.8,555.6,158.7z M431.3,206.7c0-10.9-0.1-21.8,0-32.7   c0-2.1-0.5-2.4-2.6-2.1c-8.7,1.3-17.5,2.4-26.3,3.5c-14.7,1.9-29.4,3.9-44.1,5.8c-1.3,0.2-1.5,0.7-1.5,1.8c0,5.2,0.1,10.3,1.1,15.4   c4.1,21.5,23.6,39.8,45.3,42.4c8.6,1,17.1,0.2,25.7,0.6c1.9,0.1,2.4-0.5,2.4-2.4C431.2,228.3,431.3,217.5,431.3,206.7z    M458.4,284.1c0,3.9,0,7.9,0,11.8c0,1.6-0.1,2.9,2.3,2.9c2.3,0,2.6-1,2.6-2.9c-0.1-7.1,0-14.3,0-21.4c0-0.8-0.3-1.6,0.9-2.2   c6.4-3.1,12,0.3,12.1,7.3c0,5.5,0.1,11.1,0,16.6c0,2,0.5,2.6,2.6,2.6c2.1,0,2.4-0.9,2.3-2.6c-0.1-0.9,0-1.8,0-2.7   c-0.3-6.4,0.8-12.9-0.7-19.2c-0.2-1,0.4-1.2,1-1.5c6.7-3.9,13.1-0.2,13.1,7.5c0,5.4,0.1,10.7,0,16.1c0,1.9,0.5,2.5,2.4,2.5   c1.9,0,2.5-0.5,2.5-2.4c-0.1-5.9,0-11.8-0.1-17.7c0-3.3-1.1-6.3-3.7-8.6c-3.7-3.4-10.6-3.9-16.2-1.2c-0.8,0.4-1.4,1.4-2.6,0.6   c-5.3-3.6-10.9-2.5-16.4-0.7c-1.4,0.5-1.9,1.2-1.9,2.7C458.5,275.7,458.4,279.9,458.4,284.1z M833.9,297.5c0,3.7,0.1,7,0,10.3   c-0.1,1.9,0.8,2.2,2.4,2.2c1.6,0,2.5-0.2,2.4-2.2c-0.1-12.1-0.1-24.3,0-36.4c0-1.4-0.4-2.2-1.7-2.6c-4.1-1.2-8.2-2-12.4-1.6   c-7,0.6-11,5.1-11.1,12c0,2.9-0.1,5.9,0,8.8c0.2,5.2,3.5,9.3,8.6,10.7C826,299.7,829.8,299.2,833.9,297.5z M985.3,297.6   c1.7,0.5,3,1,4.4,1.3c7.7,1.7,14.5-2.3,15.8-9.7c0.7-4,0.6-8.2,0-12.3c-0.9-5.6-3.8-8.4-9.4-9.5c-4.9-1-9.6,0.1-14.2,1.4   c-1.2,0.3-1.3,1.2-1.3,2.3c0,12.2,0.1,24.5,0,36.7c0,2,0.9,2.1,2.5,2.1c1.6,0,2.5-0.3,2.4-2.2C985.2,304.5,985.3,301.2,985.3,297.6   z M902.6,297.5c1.1,0.4,1.8,0.7,2.6,1c8.6,2.7,16.4-1.4,17.6-9.5c0.6-3.9,0.5-7.9,0-11.8c-0.8-5.7-3.8-8.7-9.4-9.8   c-4.9-1-9.6,0.1-14.2,1.4c-1.2,0.3-1.3,1.2-1.3,2.3c0,12.2,0.1,24.5,0,36.7c0,2,0.9,2.1,2.5,2.1c1.6,0,2.5-0.3,2.4-2.2   C902.5,304.5,902.6,301.2,902.6,297.5z M513.7,297.6c0.9,0.3,1.7,0.6,2.4,0.8c8.6,2.8,16.4-1.2,17.8-9.3c0.7-4,0.6-8.2,0-12.3   c-0.9-5.6-3.8-8.4-9.5-9.5c-4.9-0.9-9.6,0.1-14.2,1.5c-1.2,0.4-1.2,1.3-1.2,2.3c0,12.1,0,24.3,0,36.4c0,1.7,0.5,2.4,2.3,2.3   c1.7,0,2.7-0.2,2.6-2.3C513.6,304.4,513.7,301.1,513.7,297.6z M1028,285.4c1.4,0,2.9,0,4.3,0c6.2,0,6.2,0,6.2-6.1   c0-6.7-3.3-10.9-9.8-12c-8.5-1.4-16.1,3.2-15.5,12.5c0.2,2.8,0,5.5,0,8.3c0,5.1,2.8,9,7.6,10.4c5.5,1.6,10.8,0.7,15.6-2.5   c0.9-0.6,2-1.3,0.9-2.7c-1-1.3-1.9-2-3.5-0.8c-2.4,1.8-5.1,2.5-8,2.5c-5,0-7.8-2.9-7.8-7.5c0-1.5,0.4-2,1.9-2   C1022.6,285.5,1025.3,285.4,1028,285.4z M439.9,285.4c1.4,0,2.9,0,4.3,0c6.1,0,6.1,0,6.1-6.2c0-6.7-3.3-10.9-9.8-12   c-8.5-1.4-16.1,3.2-15.4,12.5c0.2,2.8,0,5.5,0,8.3c0,5.2,3,9.1,7.9,10.5c5.4,1.4,10.4,0.6,15.1-2.5c1-0.7,2.3-1.2,1.1-2.9   c-1-1.4-1.9-1.9-3.5-0.7c-2.4,1.8-5.3,2.6-8.3,2.5c-4.9-0.2-7.7-3.2-7.5-7.9c0.1-1.3,0.5-1.7,1.7-1.6   C434.4,285.5,437.2,285.4,439.9,285.4z M795.5,285.4c1.4,0,2.9,0,4.3,0c6.1,0,6.1,0,6.1-6.1c0-6.7-3.3-10.9-9.8-12   c-8.5-1.4-16.1,3.2-15.4,12.5c0.2,2.8,0,5.5,0,8.3c0,5.2,2.9,9.1,7.9,10.5c5.4,1.4,10.4,0.6,15.1-2.5c1-0.7,2.3-1.2,1.1-2.9   c-1-1.4-1.9-1.9-3.5-0.8c-2.4,1.8-5.1,2.5-8,2.5c-5,0-8-3.1-7.8-7.9c0.1-1.3,0.5-1.7,1.7-1.6C789.9,285.5,792.7,285.4,795.5,285.4z    M1104.8,285.4c1.4,0,2.9,0,4.3,0c6.2,0,6.2,0,6.2-6.3c0-6.4-3.2-10.5-9.5-11.7c-8.2-1.6-16.4,2.7-15.7,12.4c0.2,2.8,0,5.5,0,8.3   c0,5.1,2.7,9,7.6,10.4c5.5,1.6,10.8,0.8,15.6-2.5c0.9-0.6,2.1-1.2,1-2.7c-1-1.3-1.8-2.1-3.5-0.9c-2.3,1.8-5.1,2.5-8,2.5   c-5,0-7.9-2.9-7.9-7.5c0-1.4,0.3-2.1,1.9-2C1099.4,285.5,1102.1,285.4,1104.8,285.4z M651.2,286.5c0-2.9,0.1-5.9,0-8.8   c-0.1-5.7-3.5-9.6-9.1-10.5c-4.2-0.6-8.4,0-12.2,1.9c-0.9,0.4-2.3,0.8-1.3,2.3c0.7,1.1,1.2,2.8,3.2,1.7c2.1-1.1,4.3-1.6,6.7-1.8   c5.2-0.4,7.9,2.2,8,7.3c0,1.6-0.4,2-2,1.8c-3.3-0.5-6.6-0.7-9.9,0c-5.1,1-8,4.1-8.1,8.5c-0.1,5.2,2.5,8.4,7.8,9.6   c5.2,1.2,10.3,0.4,15.3-1c1.3-0.4,1.6-1.1,1.6-2.3C651.2,292.4,651.2,289.5,651.2,286.5z M322,286.3c0-2.9,0.1-5.7,0-8.6   c-0.1-5.8-3.4-9.6-9.1-10.5c-4.2-0.6-8.4,0-12.2,1.9c-0.9,0.4-2.3,0.7-1.4,2.2c0.7,1.2,1.3,2.9,3.4,1.7c2-1.1,4.2-1.5,6.4-1.7   c5.1-0.4,7.7,2,8.1,7c0.1,1.7-0.3,2.4-2.2,2.1c-3.2-0.6-6.4-0.6-9.6,0c-5.1,1-8,4.1-8.1,8.5c-0.1,5.2,2.5,8.5,7.7,9.7   c5.2,1.2,10.3,0.4,15.3-1c1.3-0.4,1.7-1,1.7-2.3C321.9,292.4,322,289.4,322,286.3z M730.6,285.4c1.3,0,2.7,0,4,0   c6.3,0,6.3,0,6.3-6.3c0-6.5-3.1-10.4-9.4-11.8c-7.8-1.6-16.5,2.3-15.8,12.5c0.2,2.8,0,5.5,0,8.3c0,5.1,3,9.1,8,10.4   c5.3,1.4,10.3,0.6,14.8-2.5c1.1-0.7,2.5-1.3,1.2-3.1c-1.1-1.5-2-1.7-3.5-0.6c-2.4,1.7-5.1,2.5-8.1,2.4c-4.9-0.1-7.8-3-7.7-7.7   c0-1.4,0.3-1.9,1.8-1.9C725,285.5,727.8,285.4,730.6,285.4z M580.1,285.4c1.4,0,2.9,0,4.3,0c6.1,0,6.1,0,6.1-6.2   c0-6.7-3.5-11.1-10.1-12c-8.8-1.2-15.8,3.7-15.1,12.6c0.2,2.8,0,5.5,0,8.3c0,5,2.8,9,7.7,10.4c5.5,1.5,10.6,0.7,15.3-2.5   c1-0.7,2.3-1.3,1.1-2.9c-1-1.4-1.9-1.9-3.5-0.7c-2.4,1.8-5.3,2.6-8.3,2.5c-4.9-0.2-7.7-3.2-7.5-7.9c0.1-1.3,0.5-1.7,1.7-1.7   C574.6,285.5,577.4,285.4,580.1,285.4z M249.5,283c0.1,0,0.1,0,0.2,0c0,2.5-0.4,5.1,0.1,7.5c1.3,6.3,8.2,10,15.7,8.6   c7-1.3,10.3-5.3,10.3-12.4c0-2.4,0-4.8,0-7.2c0-7.8-4.9-12.4-13.2-12.4c-8.5,0-13.7,5.5-13.1,12.5   C249.6,280.7,249.5,281.8,249.5,283z M930.5,283.2c0.2,2.5-0.3,5,0.3,7.5c1.5,6.2,8.2,9.7,15.6,8.5c7.1-1.2,10.5-5.3,10.5-12.5   c0-2.3,0-4.6,0-7c0-6.9-3.4-11-10.2-12.3c-7.5-1.4-14.2,2.1-15.8,8.4C930.2,278.2,930.7,280.7,930.5,283.2z M1172.3,283.5   c0.1,2.1-0.3,4.6,0.3,7.1c1.5,6.3,8.3,9.9,15.8,8.4c7-1.3,10.2-5.3,10.2-12.5c0-2.3,0-4.6,0-7c0-6.9-3.4-11.1-10.1-12.3   c-8.2-1.4-17.1,2.6-16.1,13.1C1172.3,281.3,1172.3,282.2,1172.3,283.5z M357.4,299.2c0.3,0,1.3,0,2.3-0.2c5.6-1,8.9-4,9.1-8.3   c0.2-5.3-1.9-7.7-8.2-9.3c-2.2-0.5-4.4-0.9-6.5-1.6c-2.1-0.6-4.2-1.6-4-4.3c0.1-2.6,2.1-3.5,4.4-4c3.4-0.8,6.6,0,9.6,1.5   c2.1,1,2.5-0.4,3.2-1.6c1.1-1.7-0.3-2-1.3-2.5c-4.5-2.2-9.2-2.6-14.1-1.3c-1.9,0.5-3.6,1.5-4.9,3.1c-3.2,3.9-1.9,9.5,2.7,12.1   c3.3,1.8,7,2.1,10.5,3.1c2,0.6,4,1.6,3.9,4.1c-0.1,2.6-1.9,3.7-4.1,4.3c-4.1,1.1-7.8,0.1-11.2-2.1c-1.4-0.9-2.2-1-3.2,0.6   c-1,1.7-0.7,2.5,0.9,3.4C349.5,298.3,353,299.3,357.4,299.2z M608.9,267.1c-0.6,0-1.3-0.1-1.9,0c-2.6,0.3-5.1,0.9-7.2,2.6   c-4.2,3.3-3.8,9.8,0.9,12.8c3.3,2.1,7.2,2.5,10.9,3.5c2.1,0.6,4.2,1.5,4.2,4.2c-0.1,2.7-2,3.8-4.3,4.4c-4,1-7.6-0.1-11-2.1   c-1.4-0.8-2.2-1-3.2,0.6c-1,1.6-0.7,2.5,0.9,3.4c4.1,2.4,8.5,3.3,13.1,2.7c5.6-0.7,9.1-3.9,9.3-8.3c0.3-5.3-1.9-7.7-8.2-9.3   c-2.3-0.6-4.7-1-7-1.7c-2-0.6-3.7-1.7-3.6-4.1c0.1-2.5,1.9-3.4,4.1-3.9c3.6-0.9,6.9,0,10.1,1.5c1.9,0.9,2.2-0.6,3-1.7   c1-1.4-0.1-1.9-1.1-2.4C615.1,267.8,612.1,267.1,608.9,267.1z M195.2,283.9c0,4,0.1,8,0,12.1c0,1.7,0.1,2.8,2.4,2.8   c2.1,0,2.5-0.8,2.5-2.7c-0.1-7.1-0.1-14.3,0-21.4c0-0.8-0.4-1.7,0.7-2.3c7.1-3.9,14.8,0.4,14.9,8.3c0.1,5.3,0.1,10.5,0,15.8   c0,1.8,0.6,2.3,2.3,2.2c1.5-0.1,2.6,0,2.5-2.1c-0.1-6.1,0.1-12.1-0.1-18.2c-0.2-5.9-3.4-9.6-9.2-10.9c-5-1.1-9.8-0.1-14.5,1.4   c-1.2,0.4-1.6,1.2-1.6,2.4C195.3,275.5,195.2,279.7,195.2,283.9z M185.5,282.4c0-4-0.1-8,0-12.1c0-1.8-0.3-2.7-2.5-2.7   c-2.2,0-2.4,0.9-2.4,2.7c0.1,7.1,0.1,14.1,0,21.2c0,0.9,0.4,1.9-0.9,2.5c-7.6,3.8-14.6-0.4-14.7-8.8c0-5.2-0.1-10.4,0-15.5   c0-1.8-0.7-2.1-2.3-2c-1.4,0.1-2.6-0.1-2.6,2c0.1,6.1-0.1,12.2,0.1,18.2c0.2,6,3.5,9.8,9.4,11c4.9,1,9.6,0.1,14.2-1.4   c1.4-0.5,1.6-1.4,1.6-2.7C185.5,290.6,185.5,286.5,185.5,282.4z M401.5,282.5c0-4.1-0.1-8.2,0-12.3c0-1.8-0.3-2.6-2.3-2.6   c-2.1,0-2.5,0.7-2.5,2.6c0.1,7.1,0.1,14.3,0,21.4c0,0.8,0.4,1.7-0.8,2.3c-7.1,3.9-14.7-0.3-14.8-8.4c0-5.4-0.1-10.7,0-16.1   c0-2-1.1-1.9-2.4-1.9c-1.3,0-2.5-0.1-2.4,1.9c0.1,6.2-0.1,12.3,0.1,18.5c0.2,6,3.6,9.7,9.5,10.9c4.8,1,9.4,0.1,13.9-1.4   c1.3-0.4,1.7-1.3,1.7-2.7C401.4,290.7,401.5,286.6,401.5,282.5z M873,282.3c0-3.9-0.1-7.9,0-11.8c0-1.8-0.1-3-2.5-2.9   c-2.3,0-2.3,1.1-2.3,2.8c0.1,7.1,0,14.1,0,21.2c0,0.9,0.4,1.8-0.9,2.5c-7.8,3.7-14.6-0.4-14.6-8.9c0-5.1-0.1-10.2,0-15.3   c0-1.8-0.6-2.3-2.3-2.3c-1.7,0-2.6,0.3-2.6,2.3c0.1,5.8,0,11.6,0.1,17.4c0.1,6.4,3.4,10.4,9.7,11.6c4.5,0.8,8.9,0.1,13.2-1.3   c1.8-0.6,2.3-1.5,2.3-3.3C873,290.3,873,286.3,873,282.3z M1122.3,283c0,1.8,0,3.6,0,5.4c0.1,4.2,1.9,7.5,5.7,9.3   c5.7,2.7,11.2,2.1,16.6-1.1c1.1-0.7,1.4-1.5,0.5-2.6c-0.8-1-1.3-2.2-2.9-1.1c-1.8,1.2-3.9,1.8-6,2.1c-5.3,0.8-9.1-2.4-9.1-7.8   c0-2.9-0.1-5.9,0-8.8c0.1-3.3,2-5.5,5.1-6.4c3.2-1,6.2-0.3,9,1.2c1.7,0.9,2.3,0.1,3.2-1.1c1-1.7,0-2.2-1.2-2.8   c-1.9-1.1-4-1.7-6.1-1.9c-8.6-0.9-15.7,3.6-14.8,12.9C1122.4,281,1122.3,282,1122.3,283z M150.1,272.5c0-4.8-0.1-9.6,0-14.5   c0.1-2.2-1-2.2-2.7-2.2c-1.7-0.1-2.4,0.5-2.3,2.2c0.1,6.3,0,12.7,0,19c0,3.5,0.1,7-0.3,10.4c-0.6,4.8-3.4,7.1-8.1,6.9   c-2.8-0.1-5.2-1.3-7.4-2.9c-1.3-1-1.9-0.7-2.8,0.5c-1,1.6-1,2.7,0.7,3.8c1.6,1,3.2,2,5,2.6c9.8,3.2,17.8-2.5,17.8-12.8   C150.1,281.3,150.1,276.9,150.1,272.5z M1071.3,280.7c0,4.9,0,9.8,0,14.7c0,1.6-0.6,3.3,2.3,3.4c2.8,0,2.4-1.5,2.4-3.2   c0-7,0.1-13.9-0.1-20.9c0-1.9,0.6-2.5,2.4-2.3c1.2,0.1,2.5,0,3.8,0c1.6,0.1,3,0.1,3-2.2c0-2.3-1.3-2.1-2.8-2.1c-1.5,0-3-0.1-4.6,0   c-1.2,0.1-1.7-0.3-1.7-1.6c-0.2-4.8,2.1-6.9,7.5-6.9c1.2,0,2.2,0,2-1.6c-0.1-1.1,0.2-2.5-1.5-2.6c-7-0.7-12.5,2-12.8,10.3   C1071.2,270.7,1071.3,275.7,1071.3,280.7z M240.4,299.2c0.3,0,0.5,0,0.8,0c1.8,0.2,3,0,2.9-2.5c-0.1-2.5-1.4-2.1-3-2.1   c-4.2,0.2-6.5-1.9-6.7-6.2c-0.1-3.5,0-7,0-10.4c0-5.6,0-5.6,5.7-5.6c1.6,0,3,0.2,2.9-2.2c0-2.3-1.4-2-2.8-2c-5.5,0-5.6,0-6-5.6   c-0.1-1.8-0.7-2.5-2.6-2.5c-2,0-2.1,0.9-2.1,2.5c0,8.7,0,17.3,0,26C229.7,295.6,233.3,299.2,240.4,299.2z M1152.4,275.9   c0,4.5,0,8.9,0,13.4c0.1,5.4,3,9,8,9.8c1.2,0.2,2.5,0,3.7,0.1c1.9,0.2,2.7-0.3,2.7-2.4c0-2.1-1-2.3-2.7-2.2c-4.6,0.3-6.8-1.8-7-6.4   c-0.1-3.2-0.1-6.4,0-9.6c0.1-2-0.9-4.7,0.5-5.9c1.2-1,3.7-0.3,5.7-0.4c0.1,0,0.2,0,0.3,0c1.7,0.2,2.1-0.6,2.1-2.2   c0-1.7-0.6-2.2-2.2-2.1c-2,0.1-4.4,0.7-5.8-0.3c-1.6-1.1-0.6-3.8-0.8-5.8c-0.2-1.9-1.3-1.9-2.8-2c-1.6,0-1.9,0.8-1.9,2.2   C1152.5,266.8,1152.4,271.4,1152.4,275.9z M749.1,273.8c0,5.2-0.1,10.3,0,15.5c0.1,6.8,3.7,10.1,10.4,10c1.8-0.1,2.4-0.7,2.5-2.5   c0-2.1-0.9-2-2.5-1.9c-3.4,0.2-4.8-0.9-5.4-4.2c-0.2-1.2-0.3-2.5-0.3-3.7c0-9.6-0.1-19.3,0-28.9c0-1.9-0.9-2.1-2.4-2.1   c-1.6,0-2.5,0.2-2.4,2.2C749.1,263.2,749.1,268.5,749.1,273.8z M1047.1,284c0,4.1,0.1,8.2,0,12.3c-0.1,1.9,0.6,2.4,2.4,2.4   c1.9,0,2.5-0.6,2.4-2.5c-0.1-5.9,0-11.8,0-17.7c0-6.7,0.9-7.6,7.7-7.2c0.8,0,1.6,0.2,2.4,0.3c1,0.1,2.3,0.7,2.4-1.1   c0-1.3,0.6-2.9-1.7-3.2c-4.7-0.6-9.2-0.4-13.7,1.2c-1.4,0.5-1.9,1.3-1.9,2.7C1047.2,275.6,1047.1,279.8,1047.1,284z M542.8,284   c0,4.1,0.1,8.2,0,12.3c-0.1,1.9,0.5,2.5,2.4,2.5c1.9,0,2.5-0.5,2.5-2.4c-0.1-5.9,0-11.8,0-17.7c0-6.8,0.9-7.6,7.7-7.2   c0.8,0,1.6,0.2,2.4,0.3c1,0.1,2.3,0.7,2.4-1.1c0-1.3,0.6-2.9-1.7-3.2c-4.7-0.6-9.2-0.4-13.7,1.2c-1.4,0.5-1.9,1.2-1.9,2.7   C542.8,275.6,542.8,279.8,542.8,284z M887.5,283.4c0-4.6-0.1-9.1,0-13.7c0.1-1.9-0.9-2.1-2.5-2.2c-1.6,0-2.4,0.2-2.4,2.2   c0.1,8.9,0.1,17.9,0,26.8c0,1.9,0.8,2.2,2.4,2.2c1.6,0,2.5-0.2,2.5-2.2C887.5,292.2,887.5,287.8,887.5,283.4z M694.7,295.5   c-0.2-1.7-1.2-2.9-3.4-2.8c-2.1,0.1-3,1.2-3,3.3c0,2.1,1,3.2,3,3.3C693.3,299.3,694.7,297.9,694.7,295.5z M680.2,295.5   c-0.2-1.7-1.2-2.9-3.4-2.9c-2.1,0.1-3,1.2-3,3.2c0,2.1,1,3.2,3,3.3C678.8,299.3,680.2,297.9,680.2,295.5z M662.7,299.2   c2.3-0.1,3.7-1.5,3.5-3.5c-0.2-2-1.3-3.1-3.3-3c-2.2,0.1-3.2,1.3-3.1,3.5C659.9,298.3,661.1,299.1,662.7,299.2z M888.1,259.3   c-0.1-1.8-1-2.9-2.8-2.9c-1.9,0-3.1,0.9-3.1,2.8c0,1.9,1.1,2.9,3,2.9C887.1,262.2,887.9,261.1,888.1,259.3z"/>
	<path class="st1" d="M853.8,0c2.5,1.2,5.2,0.6,7.8,0.9c24.9,2.2,46.8,11.2,65.8,27.5c1.6,1.3,1.5,2,0.3,3.5   c-13.2,16.6-22.8,35-27.4,55.9c-0.6,2.9-3.2,4.2-5,6.1c-2.8,3-2.9,3-5.9,0c-6-6.1-12-12-20-15.4c-32.3-13.6-67.6,11.5-64.3,46.2   c1.8,18.8,11.8,32.5,29.7,39.1c17.9,6.6,34.3,3,48.4-10c2.8-2.5,5.4-5.3,8-8c0.9-1,1.6-1.1,2.5,0c1.6,1.7,3.3,3.3,4.9,4.9   c0.7,0.7,1.1,1.5,1.4,2.5c4.4,21,13.8,39.6,27.1,56.3c1.5,2,1.6,2.8-0.4,4.5c-18,15.2-38.8,23.9-62.2,26.2   c-35.9,3.5-67.8-6-94.7-30.4c-21.2-19.3-34.1-43.3-38-71.8c-4.6-34.6,3.3-66,25.5-93.2c20.1-24.8,46.3-39.2,78-43.5   c3.5-0.5,7.1-0.8,10.7-1c0.5,0,1.1,0.2,1.3-0.5C849.5,0,851.6,0,853.8,0z"/>
	<path class="st1" d="M1146.4,72.5c0-6.9,0-13.9,0-20.8c0-15.8,0.1-31.6-0.1-47.5c0-2.3,0.7-2.7,2.8-2.7c22.7,0.1,45.5,0.1,68.2,0   c1.9,0,3,0.5,4,2.2c16,28.6,32.1,57.2,48.1,85.8c0.3,0.6,0.7,1.2,1.6,1.8c0-0.9,0-1.8,0-2.7c0-28.2,0-56.5-0.1-84.7   c0-2.3,0.4-3,2.9-3c22.9,0.1,45.8,0.1,68.7,0c2.3,0,2.8,0.6,2.8,2.8c-0.1,78.3-0.1,156.6,0,234.9c0,2.5-0.7,2.9-3,2.8   c-22.6-0.1-45.3-0.1-67.9,0c-2,0-3-0.6-3.9-2.3c-16-28.6-32.1-57.2-48.2-85.8c-0.4-0.7-0.9-1.4-1.7-2.8c0,1.6,0,2.4,0,3.3   c0,28.2,0,56.5,0.1,84.7c0,2.4-0.6,2.9-2.9,2.9c-22.8-0.1-45.6-0.1-68.5,0c-2.6,0-3-0.8-3-3.1c0.1-22.2,0-44.3,0.1-66.5   c0-0.8,0-1.7,0-2.5c-15.9,33-40.9,55.5-75.8,66.5c-25.2,8-50.6,7.3-75.5-1.7c-51.7-18.7-81.5-67.1-80-116.7   c1.7-55.7,40.3-100.4,90.8-113.2C1062.1-9.9,1122.4,18.4,1146.4,72.5z M954.5,177.6c0.3,0.7,0.5,1.3,0.8,2   c4.7,9.2,11.1,17,19.3,23.3c1.3,1,2.5,1.1,3.9,0.6c6.7-2,13.1-4.8,19.3-7.8c5.5-2.7,11.1-0.5,13.3,5.1c2.2,5.7,4.7,11.3,7.4,16.9   c0.7,1.5,1.6,2,3.2,2.2c10.4,0.8,20.7,0.8,31.1-0.5c1.6-0.2,2.3-0.8,2.9-2.2c2.4-5.5,4.5-11,6.4-16.7c1.4-4.1,5.7-6.5,10-5.5   c1.6,0.3,3,1.1,4.5,1.8c5.4,2.6,10.9,4.8,16.6,6.7c1.4,0.5,2.3,0.2,3.4-0.6c8.8-6.8,15.5-15.2,20.2-25.3c0.5-1.1,0.6-2.1,0-3.3   c-2.3-5-4.5-10.1-6.8-15.1c-2.1-4.6-0.4-9.4,4.3-11.4c2.6-1.1,5.3-2.2,8-3.1c1.6-0.6,2.1-1.4,2.1-3.1c-0.1-13.2-0.1-26.5,0-39.7   c0-1.7-0.5-2.6-2.1-3.1c-2.2-0.7-4.4-1.5-6.6-2.2c-6.2-2.1-8.6-7.5-6.2-13.4c2.2-5.4,4.3-10.9,6.5-16.4c0.6-1.5,0.5-2.7-0.2-4.1   c-4.7-9.1-11.1-16.8-19.1-23.2c-1.3-1.1-2.5-1.2-4.2-0.7c-6.6,2-12.9,4.7-19,7.7c-5.7,2.8-11.2,0.6-13.5-5.2   c-2.2-5.7-4.7-11.3-7.4-16.9c-0.7-1.4-1.6-1.9-3.1-2c-10.5-0.9-20.9-0.8-31.3,0.4c-1.5,0.2-2.2,0.7-2.8,2c-2.4,5.6-4.6,11.2-6.4,17   c-0.7,2.2-2.1,3.6-4.1,4.6c-3,1.4-5.8,1.2-8.7-0.2c-5.8-2.8-11.7-5.2-17.8-7.3c-1.7-0.6-2.8-0.3-4.1,0.7   c-8.6,6.8-15.2,15.1-19.9,24.9c-0.6,1.2-0.7,2.3-0.1,3.5c2.5,5.3,4.8,10.7,7.3,16c0.6,1.4,0.6,2.6,0.3,4.1c-0.9,3.6-3,5.7-6.5,6.8   c-1.9,0.6-3.8,1.7-5.7,2.2c-2.3,0.6-3,1.8-3,4.2c0.1,12.9,0.1,25.7,0,38.6c0,1.9,0.5,3,2.4,3.5c2.2,0.6,4.4,1.4,6.6,2.2   c6,2.1,8.4,7.5,6,13.3c-1.9,4.6-3.8,9.2-5.6,13.9C955.5,174.5,955,176,954.5,177.6z"/>
	<path class="st2" d="M125.4,110.4c2.8-8.3,5.5-16,8.1-23.6C143,58.9,152.6,31,162.1,3.1c0.7-1.9,1.6-2.5,3.6-2.5   c22,0.1,44,0.1,66.1,0c2.4,0,3,0.8,3.2,2.9c0.7,13.5,1.5,26.9,2.3,40.4c1.2,20.1,2.4,40.3,3.6,60.4c0.8,13.4,1.5,26.7,2.3,40.1   c1.2,20.2,2.4,40.4,3.6,60.7c0.7,11.5,1.3,23,2,34.5c0.1,1.6-0.4,1.9-1.9,1.9c-23.5,0-47.1,0-70.6,0c-1.6,0-1.9-0.6-2-2   c-0.6-11.3-1.4-22.6-2.5-34c-0.9,2.7-1.9,5.4-2.8,8.1c-2.9,8.5-5.8,17-8.6,25.6c-0.6,1.8-1.5,2.4-3.4,2.4   c-20.9-0.1-41.7-0.1-62.6,0c-1.9,0-2.6-0.6-3.2-2.3c-4.3-12.5-8.6-24.9-12.9-37.4c-0.2-0.5,0-1.1-0.9-1.2   c-0.4,5.9-0.8,11.8-1.2,17.8c-0.4,6.9-0.9,13.7-1.2,20.6c-0.1,1.9-0.7,2.5-2.7,2.5c-23.3-0.1-46.5-0.1-69.8,0   c-2.2,0-2.5-0.6-2.3-2.7c1.1-15.4,2-30.8,2.9-46.2c1.2-18,2.4-36,3.5-54c1-15.3,1.9-30.6,2.9-46c1.2-18.2,2.4-36.3,3.6-54.5   c0.8-11.8,1.6-23.5,2.2-35.3c0.1-1.8,0.6-2.2,2.3-2.2c22.4,0.1,44.8,0.1,67.1,0c2.3,0,2.6,1.2,3.2,2.7   c12.3,35.2,24.7,70.5,37.1,105.7C125,109.3,125.1,109.5,125.4,110.4z"/>
	<path class="st1" d="M568.5,87.4c0-27.8,0-55.6-0.1-83.4c0-2.4,0.6-2.9,2.9-2.9c52.5,0,104.9,0,157.4-0.2c2.6,0,3.2,0.6,3.2,3.2   c-0.1,22.7-0.1,45.4,0,68.1c0,2.7-0.8,3.1-3.3,3.1c-27.6-0.1-55.1,0-82.7-0.1c-2.4,0-3,0.6-2.9,2.9c0.2,5.1,0,5.1,5,5.1   c21.5,0,43,0,64.4-0.1c2.3,0,2.7,0.7,2.7,2.8c-0.1,23-0.1,45.9,0,68.9c0,2.5-0.8,2.8-3,2.8c-22.2-0.1-44.4,0-66.6-0.1   c-2.1,0-2.9,0.5-2.6,2.6c0.3,2.2-0.9,5.1,0.5,6.4c1.4,1.4,4.3,0.4,6.5,0.4c26.3,0,52.6,0.1,78.9,0c2.3,0,3,0.5,3,2.9   c-0.1,23-0.1,45.9,0,68.9c0,2.2-0.6,2.6-2.7,2.6c-33-0.1-66.1-0.1-99.1,0c-1.6,0-2.8-0.4-3.9-1.7c-18.9-21.6-37.8-43.2-56.7-64.7   c-1-1.1-1-2.2-1-3.4C568.5,143.5,568.5,115.5,568.5,87.4z"/>
	<path class="st1" d="M431.3,151.7c0,3.3-0.1,6.6,0,9.9c0.1,1.7-0.3,2.4-2.2,2.7c-23.5,3-46.9,6.1-70.4,9.3   c-1.5,0.2-1.9-0.1-1.8-1.5c0.1-0.5,0-1.1,0-1.6c0-55.2,0-110.5-0.1-165.7c0-2.6,0.5-3.2,3.2-3.2c13.8,0.2,27.6,0.1,41.4,0   c1.6,0,2.6,0.4,3.7,1.6c25.4,28.8,50.9,57.5,76.4,86.3c21.2,23.9,42.4,47.9,63.6,71.9c23.3,26.3,46.6,52.6,69.8,78.9   c0.2,0.3,0.4,0.5,0.7,0.9c-0.8,0.6-1.6,0.3-2.4,0.3c-42.8,0-85.6,0-128.4,0.1c-1.9,0-2.8-0.7-3.7-2.2c-16-28.5-32-57.1-48-85.6   c-0.4-0.7-0.9-1.5-1.4-2.2C431.6,151.5,431.4,151.6,431.3,151.7z"/>
	<path class="st1" d="M339.6,121c0,39.1,0,78.3,0.1,117.4c0,2.4-0.6,3.1-3.1,3.1c-22.9-0.1-45.8-0.1-68.7,0c-2.2,0-2.8-0.6-2.8-2.8   c0.1-78.4,0.1-156.7,0-235.1c0-2.3,0.5-3,2.9-3c22.9,0.1,45.8,0.1,68.7,0c2.4,0,2.9,0.7,2.9,3C339.6,42.7,339.6,81.8,339.6,121z"/>
	<path class="st1" d="M555.6,158.7c-14.1-15.9-27.8-31.4-41.6-46.9c-10.4-11.7-20.7-23.4-31.1-35.1c-1-1.2-1.5-2.3-1.5-3.8   c0-23.1,0.1-46.3,0-69.4c0-1.9,0.4-2.5,2.5-2.5C507.1,1,530.2,1,553.4,1c1.5,0,2.4,0.1,2.4,2.1c-0.1,51.4,0,102.8-0.1,154.1   C555.7,157.5,555.7,157.9,555.6,158.7z"/>
	<path class="st1" d="M431.3,206.7c0,10.8,0,21.6,0,32.4c0,1.9-0.5,2.4-2.4,2.4c-8.6-0.3-17.2,0.4-25.7-0.6   c-21.7-2.6-41.2-20.9-45.3-42.4c-1-5.1-1.1-10.3-1.1-15.4c0-1.2,0.2-1.7,1.5-1.8c14.7-1.9,29.4-3.9,44.1-5.8   c8.8-1.2,17.5-2.2,26.3-3.5c2.1-0.3,2.6,0,2.6,2.1C431.2,184.9,431.3,195.8,431.3,206.7z"/>
	<path class="st1" d="M458.4,284.1c0-4.2,0.1-8.4,0-12.6c0-1.5,0.5-2.3,1.9-2.7c5.6-1.8,11.1-3,16.4,0.7c1.2,0.8,1.8-0.2,2.6-0.6   c5.5-2.7,12.4-2.2,16.2,1.2c2.6,2.3,3.6,5.3,3.7,8.6c0.1,5.9-0.1,11.8,0.1,17.7c0,1.9-0.6,2.4-2.5,2.4c-1.9,0-2.5-0.6-2.4-2.5   c0.1-5.4,0.1-10.7,0-16.1c0-7.7-6.4-11.3-13.1-7.5c-0.6,0.4-1.2,0.5-1,1.5c1.5,6.4,0.4,12.8,0.7,19.2c0,0.9-0.1,1.8,0,2.7   c0.2,1.7-0.2,2.6-2.3,2.6c-2,0-2.6-0.6-2.6-2.6c0.1-5.5,0.1-11.1,0-16.6c0-7-5.7-10.3-12.1-7.3c-1.2,0.6-0.9,1.4-0.9,2.2   c0,7.1-0.1,14.3,0,21.4c0,1.9-0.2,2.9-2.6,2.9c-2.4,0-2.3-1.2-2.3-2.9C458.5,291.9,458.4,288,458.4,284.1z"/>
	<path class="st1" d="M833.9,297.5c-4.1,1.8-7.9,2.3-11.8,1.2c-5-1.3-8.4-5.5-8.6-10.7c-0.1-2.9,0-5.9,0-8.8c0.1-7,4.1-11.4,11.1-12   c4.2-0.4,8.4,0.4,12.4,1.6c1.3,0.4,1.7,1.2,1.7,2.6c0,12.1-0.1,24.3,0,36.4c0,1.9-0.9,2.2-2.4,2.2c-1.6,0-2.5-0.2-2.4-2.2   C834,304.5,833.9,301.2,833.9,297.5z M833.9,282.7c0-1.8,0-3.6,0-5.4c0-5.5-0.3-5.8-6-6c-0.5,0-1.1,0-1.6,0c-5,0.1-7.8,2.8-8,7.7   c-0.1,2.9-0.1,5.7,0,8.6c0.2,4,2.2,6.1,6.1,7c2.6,0.6,4.9,0,7.3-0.8c1.7-0.6,2.3-1.6,2.2-3.4C833.7,287.9,833.9,285.3,833.9,282.7z   "/>
	<path class="st1" d="M985.3,297.6c0,3.5-0.1,6.8,0,10.1c0.1,1.9-0.8,2.2-2.4,2.2c-1.5,0-2.5-0.1-2.5-2.1c0.1-12.2,0-24.5,0-36.7   c0-1.1,0.1-1.9,1.3-2.3c4.7-1.4,9.4-2.4,14.2-1.4c5.6,1.1,8.5,3.9,9.4,9.5c0.6,4.1,0.7,8.2,0,12.3c-1.2,7.4-8,11.4-15.8,9.7   C988.3,298.7,987,298.2,985.3,297.6z M985.3,282.6c0,2,0,3.9,0,5.9c0,4.9,0.4,5.4,5.4,6.3c1.2,0.2,2.5,0.2,3.7,0   c3.9-0.8,5.9-2.6,6.3-6.5c0.4-3.6,0.6-7.3-0.2-10.9c-0.8-3.9-3.1-5.8-7.1-6c-2-0.1-3.9,0.1-5.8,0.5c-1.6,0.3-2.5,0.9-2.3,2.8   C985.4,277.3,985.3,279.9,985.3,282.6z"/>
	<path class="st1" d="M902.6,297.5c0,3.6-0.1,6.9,0,10.2c0.1,1.9-0.8,2.2-2.4,2.2c-1.5,0-2.5-0.1-2.5-2.1c0.1-12.2,0-24.5,0-36.7   c0-1.1,0.1-1.9,1.3-2.3c4.7-1.4,9.4-2.4,14.2-1.4c5.7,1.1,8.6,4.1,9.4,9.8c0.6,3.9,0.6,7.9,0,11.8c-1.2,8.1-9,12.2-17.6,9.5   C904.4,298.3,903.7,298,902.6,297.5z M918.2,282.9c-0.1-1.5,0.1-3.6-0.4-5.6c-0.9-3.6-3-5.5-6.6-5.9c-2.3-0.2-4.6,0-6.9,0.6   c-1.2,0.3-1.8,0.8-1.7,2.2c0.1,5.7,0,11.4,0,17.1c0,0.7-0.1,1.4,0.7,1.9c3.5,1.9,7,2.5,10.8,0.9c3.2-1.3,3.9-4.2,4.1-7.2   C918.3,285.7,918.2,284.5,918.2,282.9z"/>
	<path class="st1" d="M513.7,297.6c0,3.5-0.1,6.8,0,10.1c0.1,2.1-0.9,2.3-2.6,2.3c-1.8,0-2.3-0.6-2.3-2.3c0.1-12.1,0-24.3,0-36.4   c0-1,0-2,1.2-2.3c4.7-1.4,9.4-2.4,14.2-1.5c5.6,1.1,8.6,3.9,9.5,9.5c0.7,4.1,0.7,8.2,0,12.3c-1.3,8.1-9.1,12.1-17.8,9.3   C515.4,298.2,514.7,297.9,513.7,297.6z M513.7,282.5c0,2,0,4.1,0,6.1c0,4.8,0.2,5.1,5,6c1.1,0.2,2.3,0.3,3.4,0.2   c4.5-0.5,6.7-2.7,7.1-7.2c0.2-2.1,0.1-4.3,0.1-6.4c0-7.8-3.6-10.9-11.3-9.7c-0.8,0.1-1.6,0.3-2.4,0.5c-1.5,0.2-2,1-2,2.5   C513.8,277.1,513.7,279.8,513.7,282.5z"/>
	<path class="st1" d="M1028,285.4c-2.7,0-5.4,0.1-8.1,0c-1.6-0.1-1.9,0.5-1.9,2c0,4.6,2.9,7.5,7.8,7.5c2.9,0,5.7-0.7,8-2.5   c1.6-1.2,2.5-0.5,3.5,0.8c1.1,1.5,0,2.1-0.9,2.7c-4.8,3.3-10,4.2-15.6,2.5c-4.8-1.4-7.6-5.3-7.6-10.4c0-2.8,0.2-5.6,0-8.3   c-0.6-9.3,6.9-13.9,15.5-12.5c6.5,1.1,9.8,5.3,9.8,12c0,6.1,0,6.1-6.2,6.1C1030.9,285.4,1029.5,285.4,1028,285.4z M1025.9,281.6   c2.1,0,4.3,0,6.4,0c0.7,0,1.3,0,1.5-1c0.8-4.6-2.1-8.5-6.8-9.2c-5-0.6-8.6,2.4-8.9,7.2c-0.1,2.1,0.2,3.4,2.8,3   C1022.5,281.4,1024.2,281.6,1025.9,281.6z"/>
	<path class="st1" d="M439.9,285.4c-2.8,0-5.6,0.1-8.3,0c-1.3,0-1.7,0.3-1.7,1.6c-0.2,4.6,2.6,7.7,7.5,7.9c3,0.1,5.9-0.7,8.3-2.5   c1.6-1.2,2.5-0.6,3.5,0.7c1.2,1.6-0.1,2.2-1.1,2.9c-4.6,3.1-9.7,4-15.1,2.5c-5-1.3-7.9-5.3-7.9-10.5c0-2.8,0.2-5.6,0-8.3   c-0.7-9.3,6.9-13.9,15.4-12.5c6.5,1.1,9.8,5.3,9.8,12c0,6.2,0,6.2-6.1,6.2C442.8,285.4,441.4,285.4,439.9,285.4z M437.6,281.6   c2.1,0,4.3,0,6.4,0c0.7,0,1.3,0.2,1.6-0.9c0.9-4.4-2-8.6-6.7-9.2c-4.8-0.7-8.6,2.2-9,6.9c-0.2,3.3-0.2,3.3,3.1,3.3   C434.6,281.6,436.1,281.6,437.6,281.6z"/>
	<path class="st1" d="M795.5,285.4c-2.8,0-5.6,0.1-8.3,0c-1.3,0-1.7,0.3-1.7,1.6c-0.2,4.7,2.8,7.8,7.8,7.9c2.9,0,5.7-0.7,8-2.5   c1.6-1.2,2.5-0.6,3.5,0.8c1.2,1.7-0.1,2.2-1.1,2.9c-4.6,3.1-9.7,4-15.1,2.5c-5-1.3-7.9-5.3-7.9-10.5c0-2.8,0.2-5.6,0-8.3   c-0.7-9.3,6.9-13.9,15.4-12.5c6.5,1.1,9.8,5.3,9.8,12c0,6.1,0,6.1-6.1,6.1C798.4,285.4,796.9,285.4,795.5,285.4z M793.2,281.6   c2.1,0,4.3,0,6.4,0c0.6,0,1.3,0.2,1.6-0.9c0.9-4.3-1.9-8.4-6.4-9.2c-4.6-0.8-8.7,1.9-9.2,6.3c-0.5,3.8-0.5,3.9,3.3,3.9   C790.3,281.6,791.8,281.6,793.2,281.6z"/>
	<path class="st1" d="M1104.8,285.4c-2.7,0-5.4,0.1-8.1,0c-1.6-0.1-1.9,0.6-1.9,2c0,4.6,2.9,7.5,7.9,7.5c2.9,0,5.7-0.8,8-2.5   c1.6-1.2,2.5-0.4,3.5,0.9c1.1,1.5,0,2.1-1,2.7c-4.8,3.3-10,4.1-15.6,2.5c-4.8-1.4-7.6-5.3-7.6-10.4c0-2.8,0.2-5.6,0-8.3   c-0.7-9.7,7.6-14,15.7-12.4c6.3,1.3,9.5,5.3,9.5,11.7c0,6.3,0,6.3-6.2,6.3C1107.7,285.4,1106.2,285.4,1104.8,285.4z M1102.5,281.6   c2.1,0,4.1-0.1,6.2,0c1.6,0.1,1.9-0.5,1.9-2c0-5.2-3-8.4-8-8.3c-5.1,0.1-8,3.4-7.7,8.7c0.1,1.2,0.4,1.5,1.5,1.5   C1098.4,281.5,1100.5,281.6,1102.5,281.6z"/>
	<path class="st1" d="M651.2,286.5c0,2.9,0,5.9,0,8.8c0,1.2-0.3,2-1.6,2.3c-5,1.4-10.1,2.2-15.3,1c-5.3-1.2-7.9-4.4-7.8-9.6   c0.1-4.4,3-7.5,8.1-8.5c3.3-0.6,6.6-0.5,9.9,0c1.5,0.2,2-0.2,2-1.8c-0.2-5.1-2.9-7.7-8-7.3c-2.3,0.2-4.6,0.7-6.7,1.8   c-2,1.1-2.5-0.6-3.2-1.7c-1-1.5,0.4-1.8,1.3-2.3c3.9-1.9,8-2.5,12.2-1.9c5.7,0.8,9,4.7,9.1,10.5   C651.3,280.6,651.2,283.6,651.2,286.5z M646.4,289.5c0-1.1,0-2.1,0-3.2c0-0.6,0-1.3-0.8-1.4c-3.8-0.5-7.6-1.3-11.3,0.3   c-1.8,0.8-2.8,2.1-2.9,4.1c-0.1,1.9,0.7,3.4,2.4,4.4c2.5,1.4,5.2,1.6,8,1.1C646.4,294,646.4,294,646.4,289.5z"/>
	<path class="st1" d="M322,286.3c0,3,0,6.1,0,9.1c0,1.2-0.4,1.9-1.7,2.3c-5.1,1.4-10.1,2.2-15.3,1c-5.2-1.2-7.8-4.5-7.7-9.7   c0.1-4.4,3.1-7.5,8.1-8.5c3.2-0.6,6.4-0.6,9.6,0c1.9,0.3,2.3-0.4,2.2-2.1c-0.3-5-3-7.4-8.1-7c-2.2,0.2-4.5,0.6-6.4,1.7   c-2.2,1.2-2.7-0.5-3.4-1.7c-0.9-1.5,0.5-1.8,1.4-2.2c3.9-1.9,8-2.5,12.2-1.9c5.7,0.9,8.9,4.7,9.1,10.5   C322,280.6,322,283.5,322,286.3z M317.2,289.7c0-1.2,0-2.3,0-3.5c0-0.6,0-1.3-0.8-1.4c-3.8-0.5-7.6-1.3-11.3,0.3   c-1.8,0.8-2.8,2.1-2.9,4.1c-0.1,1.9,0.7,3.4,2.5,4.4c2.6,1.5,5.4,1.6,8.3,1.1C317.2,293.9,317.2,294,317.2,289.7z"/>
	<path class="st1" d="M730.6,285.4c-2.8,0-5.5,0.1-8.3,0c-1.5-0.1-1.8,0.5-1.8,1.9c-0.1,4.6,2.8,7.6,7.7,7.7   c2.9,0.1,5.7-0.7,8.1-2.4c1.5-1.1,2.4-0.9,3.5,0.6c1.3,1.8-0.1,2.3-1.2,3.1c-4.6,3.1-9.6,3.8-14.8,2.5c-5-1.3-8-5.3-8-10.4   c0-2.8,0.2-5.5,0-8.3c-0.7-10.2,8.1-14.1,15.8-12.5c6.3,1.3,9.4,5.3,9.4,11.8c0,6.3,0,6.3-6.3,6.3   C733.3,285.4,731.9,285.4,730.6,285.4z M728.3,281.6c2.1,0,4.3,0,6.4,0c0.7,0,1.3,0.1,1.5-1c0.9-4.5-2.1-8.6-6.7-9.2   c-4.9-0.7-8.5,2.2-9,6.9c-0.2,2.3,0.1,3.7,2.9,3.3C725,281.4,726.7,281.6,728.3,281.6z"/>
	<path class="st1" d="M580.1,285.4c-2.8,0-5.5,0-8.3,0c-1.2,0-1.7,0.3-1.7,1.7c-0.2,4.6,2.6,7.7,7.5,7.9c3,0.1,5.9-0.7,8.3-2.5   c1.6-1.2,2.5-0.7,3.5,0.7c1.2,1.6,0,2.2-1.1,2.9c-4.7,3.2-9.9,4-15.3,2.5c-4.8-1.4-7.7-5.3-7.7-10.4c0-2.8,0.2-5.6,0-8.3   c-0.7-8.9,6.3-13.8,15.1-12.6c6.6,0.9,10.1,5.3,10.1,12c0,6.2,0,6.2-6.1,6.2C583,285.4,581.6,285.4,580.1,285.4z M577.8,281.6   c2.1,0,4.3-0.1,6.4,0c1.3,0.1,1.6-0.5,1.6-1.7c0.2-5.3-2.9-8.6-8-8.6c-5.1,0.1-8,3.4-7.8,8.7c0.1,1.2,0.4,1.6,1.5,1.5   C573.7,281.5,575.7,281.6,577.8,281.6z"/>
	<path class="st1" d="M249.5,283c0-1.2,0.1-2.3,0-3.5c-0.6-7,4.6-12.5,13.1-12.5c8.3,0,13.2,4.6,13.2,12.4c0,2.4,0,4.8,0,7.2   c0,7.1-3.4,11.1-10.3,12.4c-7.5,1.4-14.4-2.3-15.7-8.6c-0.5-2.4-0.1-5-0.1-7.5C249.6,283,249.6,283,249.5,283z M254.3,283.1   c0,1.3,0,2.7,0,4c0.1,4.9,3.1,7.8,8.2,7.8c5.1,0,8.3-2.8,8.5-7.6c0.1-2.7,0.1-5.4,0-8c-0.1-5.1-3.2-8-8.4-7.9c-5.2,0-8.2,2.9-8.3,8   C254.3,280.6,254.3,281.9,254.3,283.1z"/>
	<path class="st1" d="M930.5,283.2c0.2-2.5-0.3-5,0.3-7.5c1.7-6.3,8.3-9.8,15.8-8.4c6.7,1.3,10.2,5.4,10.2,12.3c0,2.3,0,4.6,0,7   c0,7.2-3.4,11.3-10.5,12.5c-7.4,1.3-14-2.3-15.6-8.5C930.2,288.2,930.7,285.6,930.5,283.2z M952,283.4c-0.1,0-0.1,0-0.2,0   c0-2,0.3-4-0.1-5.9c-0.7-4.2-4.2-6.5-9-6.1c-4.7,0.4-7.4,3-7.5,7.4c-0.1,2.6,0,5.2,0,7.8c0,5.4,2.8,8.3,8.2,8.4   c5.4,0.1,8.5-2.9,8.5-8.4C952.1,285.5,952,284.4,952,283.4z"/>
	<path class="st1" d="M1172.3,283.5c0-1.3,0.1-2.2,0-3.1c-0.9-10.6,7.9-14.6,16.1-13.1c6.8,1.2,10.1,5.4,10.1,12.3c0,2.3,0,4.6,0,7   c0,7.2-3.3,11.1-10.2,12.5c-7.5,1.4-14.3-2.2-15.8-8.4C1171.9,288.1,1172.4,285.6,1172.3,283.5z M1177.1,283.1c0,1.3,0,2.7,0,4   c0.1,4.9,3.1,7.8,8.2,7.8c5.1,0.1,8.3-2.8,8.5-7.6c0.1-2.8,0.1-5.5,0-8.3c-0.2-5-3.5-7.8-8.6-7.7c-5.1,0.1-7.9,3-8,8   C1177,280.6,1177.1,281.9,1177.1,283.1z"/>
	<path class="st1" d="M357.4,299.2c-4.4,0.1-7.8-1-11.1-2.8c-1.6-0.9-1.9-1.7-0.9-3.4c1-1.6,1.8-1.5,3.2-0.6   c3.5,2.1,7.2,3.2,11.2,2.1c2.2-0.6,4-1.8,4.1-4.3c0.1-2.6-1.9-3.5-3.9-4.1c-3.5-1-7.2-1.3-10.5-3.1c-4.6-2.6-5.9-8.2-2.7-12.1   c1.3-1.6,3-2.5,4.9-3.1c4.8-1.3,9.5-0.9,14.1,1.3c1,0.5,2.4,0.8,1.3,2.5c-0.8,1.2-1.2,2.6-3.2,1.6c-3-1.4-6.2-2.2-9.6-1.5   c-2.2,0.5-4.2,1.4-4.4,4c-0.2,2.7,1.9,3.6,4,4.3c2.1,0.6,4.3,1,6.5,1.6c6.4,1.6,8.5,4,8.2,9.3c-0.2,4.3-3.5,7.3-9.1,8.3   C358.7,299.2,357.7,299.2,357.4,299.2z"/>
	<path class="st1" d="M608.9,267.1c3.2-0.1,6.2,0.7,9,2.1c1,0.5,2,0.9,1.1,2.4c-0.7,1-1,2.6-3,1.7c-3.2-1.5-6.5-2.4-10.1-1.5   c-2.1,0.5-3.9,1.5-4.1,3.9c-0.1,2.4,1.6,3.5,3.6,4.1c2.3,0.7,4.7,1.2,7,1.7c6.3,1.6,8.5,4.1,8.2,9.3c-0.2,4.4-3.7,7.6-9.3,8.3   c-4.6,0.6-9-0.3-13.1-2.7c-1.6-0.9-1.9-1.8-0.9-3.4c1-1.6,1.8-1.4,3.2-0.6c3.4,2.1,7,3.2,11,2.1c2.3-0.6,4.2-1.7,4.3-4.4   c0.1-2.7-2.1-3.6-4.2-4.2c-3.7-1-7.6-1.3-10.9-3.5c-4.6-3-5.1-9.4-0.9-12.8c2.1-1.7,4.6-2.3,7.2-2.6   C607.7,267.1,608.3,267.1,608.9,267.1z"/>
	<path class="st1" d="M195.2,283.9c0-4.2,0-8.4,0-12.6c0-1.3,0.4-2.1,1.6-2.4c4.7-1.5,9.5-2.5,14.5-1.4c5.7,1.3,9,5,9.2,10.9   c0.2,6.1,0,12.1,0.1,18.2c0,2-1.1,2-2.5,2.1c-1.7,0.1-2.4-0.4-2.3-2.2c0.1-5.3,0.1-10.5,0-15.8c-0.1-8-7.7-12.2-14.9-8.3   c-1.1,0.6-0.7,1.5-0.7,2.3c0,7.1-0.1,14.3,0,21.4c0,1.9-0.4,2.7-2.5,2.7c-2.3,0-2.4-1-2.4-2.8C195.3,291.9,195.2,287.9,195.2,283.9   z"/>
	<path class="st1" d="M185.5,282.4c0,4.1,0,8.2,0,12.3c0,1.3-0.2,2.2-1.6,2.7c-4.6,1.6-9.3,2.5-14.2,1.4c-5.9-1.2-9.2-5-9.4-11   c-0.2-6.1,0-12.1-0.1-18.2c0-2.1,1.2-1.9,2.6-2c1.5-0.1,2.3,0.3,2.3,2c-0.1,5.2-0.1,10.4,0,15.5c0,8.4,7.1,12.6,14.7,8.8   c1.3-0.7,0.9-1.6,0.9-2.5c0-7.1,0.1-14.1,0-21.2c0-1.8,0.2-2.8,2.4-2.7c2.2,0,2.5,0.9,2.5,2.7C185.5,274.3,185.5,278.3,185.5,282.4   z"/>
	<path class="st1" d="M401.5,282.5c0,4.1,0,8.2,0,12.3c0,1.3-0.3,2.2-1.7,2.7c-4.5,1.5-9.2,2.4-13.9,1.4c-6-1.2-9.3-4.9-9.5-10.9   c-0.2-6.2,0-12.3-0.1-18.5c0-1.9,1.1-1.9,2.4-1.9c1.3,0,2.5-0.1,2.4,1.9c-0.1,5.4-0.1,10.7,0,16.1c0.1,8.1,7.6,12.3,14.8,8.4   c1.1-0.6,0.8-1.5,0.8-2.3c0-7.1,0.1-14.3,0-21.4c0-1.9,0.5-2.6,2.5-2.6c2,0,2.4,0.8,2.3,2.6C401.4,274.2,401.5,278.3,401.5,282.5z"/>
	<path class="st1" d="M873,282.3c0,4-0.1,8,0,12.1c0.1,1.8-0.5,2.7-2.3,3.3c-4.3,1.4-8.7,2.1-13.2,1.3c-6.3-1.2-9.6-5.2-9.7-11.6   c-0.1-5.8,0.1-11.6-0.1-17.4c0-2,0.8-2.3,2.6-2.3c1.7,0,2.4,0.5,2.3,2.3c-0.1,5.1-0.1,10.2,0,15.3c0,8.5,6.8,12.6,14.6,8.9   c1.3-0.6,0.9-1.6,0.9-2.5c0-7.1,0.1-14.1,0-21.2c0-1.7,0-2.8,2.3-2.8c2.4,0,2.6,1.1,2.5,2.9C873,274.4,873,278.4,873,282.3z"/>
	<path class="st1" d="M1122.3,283c0-1,0.1-2,0-2.9c-0.8-9.3,6.2-13.8,14.8-12.9c2.1,0.2,4.2,0.9,6.1,1.9c1.2,0.6,2.2,1.2,1.2,2.8   c-0.8,1.3-1.4,2.1-3.2,1.1c-2.8-1.5-5.8-2.2-9-1.2c-3.1,0.9-5,3.1-5.1,6.4c-0.1,2.9-0.1,5.9,0,8.8c0,5.4,3.8,8.6,9.1,7.8   c2.1-0.3,4.2-0.9,6-2.1c1.6-1.1,2.1,0.2,2.9,1.1c0.9,1.1,0.6,1.9-0.5,2.6c-5.3,3.2-10.9,3.9-16.6,1.1c-3.8-1.8-5.6-5.1-5.7-9.3   C1122.3,286.6,1122.3,284.8,1122.3,283z"/>
	<path class="st1" d="M150.1,272.5c0,4.4,0,8.8,0,13.1c-0.1,10.3-8,16-17.8,12.8c-1.8-0.6-3.4-1.6-5-2.6c-1.7-1.1-1.7-2.2-0.7-3.8   c0.8-1.2,1.5-1.5,2.8-0.5c2.1,1.7,4.6,2.8,7.4,2.9c4.8,0.2,7.5-2.2,8.1-6.9c0.4-3.5,0.3-6.9,0.3-10.4c0-6.3,0.1-12.7,0-19   c0-1.8,0.6-2.3,2.3-2.2c1.6,0.1,2.7,0.1,2.7,2.2C150,262.9,150.1,267.7,150.1,272.5z"/>
	<path class="st1" d="M1071.3,280.7c0-5-0.1-10,0-15c0.2-8.3,5.8-11,12.8-10.3c1.7,0.2,1.4,1.5,1.5,2.6c0.1,1.6-0.8,1.6-2,1.6   c-5.5,0-7.7,2.2-7.5,6.9c0,1.3,0.5,1.7,1.7,1.6c1.5-0.1,3,0,4.6,0c1.5,0,2.8-0.2,2.8,2.1c0,2.4-1.3,2.3-3,2.2   c-1.2-0.1-2.5,0.1-3.8,0c-1.8-0.2-2.4,0.3-2.4,2.3c0.1,7,0,13.9,0.1,20.9c0,1.7,0.4,3.3-2.4,3.2c-2.9,0-2.3-1.8-2.3-3.4   C1071.3,290.5,1071.3,285.6,1071.3,280.7z"/>
	<path class="st1" d="M240.4,299.2c-7.1,0-10.8-3.6-10.8-10.7c0-8.7,0-17.3,0-26c0-1.6,0.1-2.5,2.1-2.5c1.9,0,2.4,0.7,2.6,2.5   c0.4,5.5,0.4,5.5,6,5.6c1.4,0,2.8-0.3,2.8,2c0,2.4-1.3,2.2-2.9,2.2c-5.7,0-5.7,0-5.7,5.6c0,3.5-0.1,7,0,10.4   c0.2,4.3,2.5,6.4,6.7,6.2c1.6-0.1,2.9-0.4,3,2.1c0.1,2.5-1.1,2.6-2.9,2.5C241,299.2,240.7,299.2,240.4,299.2z"/>
	<path class="st1" d="M1152.4,275.9c0-4.6,0-9.1,0-13.7c0-1.4,0.2-2.2,1.9-2.2c1.5,0,2.6,0,2.8,2c0.2,2-0.8,4.7,0.8,5.8   c1.3,0.9,3.8,0.3,5.8,0.3c1.6-0.1,2.2,0.4,2.2,2.1c0,1.6-0.4,2.4-2.1,2.2c-0.1,0-0.2,0-0.3,0c-2,0.1-4.5-0.6-5.7,0.4   c-1.4,1.2-0.4,3.8-0.5,5.9c-0.1,3.2-0.1,6.4,0,9.6c0.1,4.6,2.4,6.6,7,6.4c1.7-0.1,2.7,0,2.7,2.2c0,2.1-0.8,2.6-2.7,2.4   c-1.2-0.1-2.5,0.1-3.7-0.1c-5-0.8-8-4.4-8-9.8C1152.4,284.8,1152.4,280.4,1152.4,275.9z"/>
	<path class="st1" d="M749.1,273.8c0-5.3,0.1-10.5,0-15.8c0-1.9,0.9-2.2,2.4-2.2c1.6,0,2.4,0.2,2.4,2.1c-0.1,9.6,0,19.3,0,28.9   c0,1.2,0,2.5,0.3,3.7c0.6,3.3,2,4.4,5.4,4.2c1.6-0.1,2.5-0.1,2.5,1.9c0,1.9-0.6,2.5-2.5,2.5c-6.7,0.2-10.3-3.1-10.4-10   C749,284.1,749.1,278.9,749.1,273.8z"/>
	<path class="st1" d="M1047.1,284c0-4.2,0.1-8.4,0-12.6c0-1.5,0.5-2.2,1.9-2.7c4.5-1.6,9-1.8,13.7-1.2c2.3,0.3,1.7,1.9,1.7,3.2   c0,1.8-1.4,1.2-2.4,1.1c-0.8-0.1-1.6-0.2-2.4-0.3c-6.8-0.4-7.7,0.5-7.7,7.2c0,5.9-0.1,11.8,0,17.7c0,1.9-0.6,2.5-2.4,2.5   c-1.9,0-2.5-0.6-2.4-2.4C1047.2,292.2,1047.1,288.1,1047.1,284z"/>
	<path class="st1" d="M542.8,284c0-4.2,0.1-8.4,0-12.6c0-1.5,0.5-2.2,1.9-2.7c4.5-1.6,9-1.8,13.7-1.2c2.3,0.3,1.7,1.9,1.7,3.2   c0,1.8-1.4,1.2-2.4,1.1c-0.8-0.1-1.6-0.2-2.4-0.3c-6.9-0.4-7.7,0.5-7.7,7.2c0,5.9-0.1,11.8,0,17.7c0,1.9-0.6,2.4-2.5,2.4   c-1.9,0-2.5-0.6-2.4-2.5C542.8,292.2,542.8,288.1,542.8,284z"/>
	<path class="st1" d="M887.5,283.4c0,4.4-0.1,8.8,0,13.1c0.1,1.9-0.9,2.1-2.5,2.2c-1.6,0-2.4-0.2-2.4-2.2c0.1-8.9,0.1-17.9,0-26.8   c0-1.9,0.8-2.2,2.4-2.2c1.6,0,2.5,0.2,2.5,2.2C887.5,274.3,887.5,278.9,887.5,283.4z"/>
	<path class="st1" d="M694.7,295.5c0,2.4-1.4,3.8-3.4,3.7c-2-0.1-3-1.2-3-3.3c0-2.1,0.9-3.2,3-3.3   C693.5,292.6,694.6,293.8,694.7,295.5z"/>
	<path class="st1" d="M680.2,295.5c0,2.4-1.4,3.8-3.4,3.7c-2-0.1-3-1.2-3-3.3c0-2.1,1-3.2,3-3.2C679,292.6,680.1,293.8,680.2,295.5z   "/>
	<path class="st1" d="M662.7,299.2c-1.6-0.1-2.8-1-2.9-3.1c-0.1-2.2,0.8-3.4,3.1-3.5c2-0.1,3.2,1,3.3,3   C666.4,297.7,665.1,299.2,662.7,299.2z"/>
	<path class="st1" d="M888.1,259.3c-0.2,1.7-1,2.8-2.9,2.8c-1.9,0-3-1-3-2.9c0-2,1.2-2.9,3.1-2.8C887.1,256.5,888,257.6,888.1,259.3   z"/>
	<path class="st0" d="M954.5,177.6c0.5-1.6,1-3.1,1.6-4.6c1.8-4.6,3.7-9.3,5.6-13.9c2.4-5.7-0.1-11.2-6-13.3   c-2.2-0.8-4.4-1.5-6.6-2.2c-1.9-0.5-2.4-1.6-2.4-3.5c0.1-12.9,0.1-25.7,0-38.6c0-2.4,0.7-3.6,3-4.2c2-0.5,3.8-1.5,5.7-2.2   c3.4-1.1,5.6-3.3,6.5-6.8c0.4-1.5,0.4-2.7-0.3-4.1c-2.5-5.3-4.8-10.7-7.3-16c-0.6-1.2-0.5-2.3,0.1-3.5c4.7-9.8,11.3-18.2,19.9-24.9   c1.3-1,2.4-1.3,4.1-0.7c6.1,2.1,12,4.5,17.8,7.3c2.9,1.4,5.8,1.6,8.7,0.2c2-1,3.4-2.4,4.1-4.6c1.8-5.8,4-11.4,6.4-17   c0.6-1.3,1.3-1.8,2.8-2c10.4-1.3,20.9-1.3,31.3-0.4c1.5,0.1,2.4,0.6,3.1,2c2.7,5.5,5.2,11.1,7.4,16.9c2.3,5.8,7.8,8,13.5,5.2   c6.2-3,12.5-5.7,19-7.7c1.6-0.5,2.8-0.3,4.2,0.7c8.1,6.3,14.4,14,19.1,23.2c0.7,1.4,0.8,2.6,0.2,4.1c-2.2,5.4-4.3,10.9-6.5,16.4   c-2.4,5.9,0.1,11.3,6.2,13.4c2.2,0.7,4.4,1.5,6.6,2.2c1.6,0.5,2.1,1.4,2.1,3.1c-0.1,13.2-0.1,26.5,0,39.7c0,1.7-0.5,2.6-2.1,3.1   c-2.7,0.9-5.3,2-8,3.1c-4.7,2-6.4,6.8-4.3,11.4c2.3,5,4.5,10.1,6.8,15.1c0.5,1.2,0.5,2.1,0,3.3c-4.7,10-11.5,18.5-20.2,25.3   c-1.1,0.8-2,1.1-3.4,0.6c-5.7-1.9-11.2-4.1-16.6-6.7c-1.4-0.7-2.9-1.4-4.5-1.8c-4.3-0.9-8.6,1.4-10,5.5c-1.9,5.7-4,11.2-6.4,16.7   c-0.6,1.4-1.3,2-2.9,2.2c-10.3,1.3-20.7,1.3-31.1,0.5c-1.6-0.1-2.5-0.7-3.2-2.2c-2.7-5.5-5.2-11.1-7.4-16.9   c-2.2-5.7-7.8-7.8-13.3-5.1c-6.3,3-12.6,5.8-19.3,7.8c-1.5,0.4-2.6,0.4-3.9-0.6c-8.2-6.4-14.6-14.1-19.3-23.3   C955,178.9,954.8,178.2,954.5,177.6z M959.6,176.5c-0.2,1.1,0.1,1.7,0.4,2.2c4,7.6,9.4,14.1,16,19.5c1,0.9,2,0.8,3.2,0.4   c5.7-2,11.5-4,16.7-7.1c7.1-4.1,17.2,0.3,19.6,7.7c1.6,4.9,3.9,9.6,6,14.3c0.6,1.4,1.5,2,3,2.1c8.5,0.4,17,0.5,25.4-0.4   c1.5-0.2,2.2-0.6,2.7-2c1.6-4.4,3.8-8.7,4.9-13.3c2-8.3,12.2-11.8,19.2-8.2c5,2.6,10.2,4.7,15.5,6.6c1.5,0.5,2.6,0.3,3.8-0.7   c6.6-5.6,11.9-12.3,15.9-20c0.7-1.3,0.7-2.4,0-3.7c-2.2-4.8-4.3-9.6-6.6-14.3c-1.1-2.2-1.1-4.3-0.4-6.7c1.4-5.1,4.3-8.5,9.4-10   c1.2-0.3,2.3-1,3.5-1.3c1.5-0.4,2.1-1.2,2.1-2.8c-0.1-11.3-0.1-22.7,0-34c0-1.6-0.5-2.4-2.1-2.8c-2.1-0.6-4.1-1.1-6-2.1   c-6.9-3.6-9.5-10.9-6.6-18c2.1-5,4-10.1,6.1-15.1c0.5-1.2,0.4-2.1-0.2-3.3c-3.9-7.4-9.2-13.6-15.5-19c-1.2-1.1-2.4-1.2-3.9-0.6   c-5.6,2-11.2,3.9-16.2,6.9c-7.2,4.3-17.6-0.2-19.9-7.8c-1.5-4.8-3.9-9.3-5.9-14c-0.6-1.4-1.5-2-3-2.1c-8.5-0.4-17-0.5-25.4,0.4   c-1.4,0.2-2.1,0.6-2.7,1.9c-1.7,4.2-3.7,8.4-4.7,12.8c-2.2,9.2-12.5,12.5-20,8.4c-4.6-2.5-9.6-4.3-14.5-6.2   c-1.6-0.6-2.7-0.5-4.1,0.6c-6.6,5.7-12,12.4-16,20.3c-0.6,1.1-0.6,2.1-0.1,3.2c2.3,4.8,4.5,9.7,6.6,14.6c0.7,1.5,1.4,3,0.9,4.9   c-1.3,5.6-3.9,10.1-9.9,11.8c-1.1,0.3-2.1,1-3.2,1.2c-2,0.4-2.3,1.6-2.3,3.5c0.1,9.6,0,19.1,0,28.7c0,2.2-0.6,4.8,0.4,6.6   c0.9,1.7,3.8,1.5,5.8,2.3c8.1,3,11.7,11.2,8.4,19.1c-0.8,1.8-1.6,3.6-2.3,5.4C962.2,169.8,960.8,173.3,959.6,176.5z"/>
	<path class="st0" d="M833.9,282.7c0,2.6-0.1,5.2,0,7.8c0.1,1.8-0.5,2.8-2.2,3.4c-2.4,0.8-4.8,1.4-7.3,0.8c-3.9-0.9-5.9-3-6.1-7   c-0.1-2.8-0.1-5.7,0-8.6c0.2-5,3-7.7,8-7.7c0.5,0,1.1,0,1.6,0c5.6,0.1,6,0.5,6,6C833.9,279.1,833.9,280.9,833.9,282.7z"/>
	<path class="st0" d="M985.3,282.6c0-2.7,0.1-5.4,0-8c-0.1-1.9,0.7-2.5,2.3-2.8c1.9-0.4,3.9-0.6,5.8-0.5c4,0.2,6.3,2.1,7.1,6   c0.8,3.6,0.6,7.3,0.2,10.9c-0.4,3.9-2.4,5.7-6.3,6.5c-1.2,0.2-2.5,0.2-3.7,0c-4.9-0.9-5.3-1.4-5.4-6.3   C985.3,286.5,985.3,284.6,985.3,282.6z"/>
	<path class="st0" d="M918.2,282.9c0,1.7,0.1,2.9,0,4c-0.2,3-1,5.9-4.1,7.2c-3.7,1.6-7.3,0.9-10.8-0.9c-0.8-0.4-0.7-1.2-0.7-1.9   c0-5.7,0.1-11.4,0-17.1c0-1.4,0.6-1.9,1.7-2.2c2.3-0.5,4.6-0.8,6.9-0.6c3.7,0.4,5.7,2.3,6.6,5.9   C918.3,279.3,918.1,281.4,918.2,282.9z"/>
	<path class="st0" d="M513.7,282.5c0-2.7,0.1-5.4,0-8c-0.1-1.6,0.5-2.3,2-2.5c0.8-0.1,1.6-0.3,2.4-0.5c7.7-1.1,11.3,2,11.3,9.7   c0,2.1,0.1,4.3-0.1,6.4c-0.4,4.5-2.6,6.7-7.1,7.2c-1.1,0.1-2.3,0-3.4-0.2c-4.8-1-5-1.2-5-6C513.7,286.6,513.7,284.5,513.7,282.5z"/>
	<path class="st0" d="M1025.9,281.6c-1.7,0-3.4-0.2-5.1,0c-2.6,0.4-2.9-0.8-2.8-3c0.3-4.9,3.9-7.9,8.9-7.2c4.7,0.6,7.6,4.6,6.8,9.2   c-0.2,1.1-0.7,1-1.5,1C1030.2,281.6,1028,281.6,1025.9,281.6z"/>
	<path class="st0" d="M437.6,281.6c-1.5,0-3,0-4.6,0c-3.4,0-3.4,0-3.1-3.3c0.3-4.6,4.1-7.6,9-6.9c4.7,0.7,7.6,4.8,6.7,9.2   c-0.2,1.1-0.9,0.9-1.6,0.9C441.9,281.6,439.8,281.6,437.6,281.6z"/>
	<path class="st0" d="M793.2,281.6c-1.4,0-2.9,0-4.3,0c-3.8,0-3.8,0-3.3-3.9c0.6-4.3,4.6-7.1,9.2-6.3c4.5,0.8,7.3,4.9,6.4,9.2   c-0.2,1.1-0.9,0.9-1.6,0.9C797.5,281.6,795.3,281.6,793.2,281.6z"/>
	<path class="st0" d="M1102.5,281.6c-2.1,0-4.1-0.1-6.2,0c-1.2,0-1.5-0.3-1.5-1.5c-0.3-5.3,2.6-8.7,7.7-8.7c5-0.1,8,3.1,8,8.3   c0,1.4-0.3,2.1-1.9,2C1106.6,281.5,1104.6,281.6,1102.5,281.6z"/>
	<path class="st0" d="M646.4,289.5c0,4.5,0,4.5-4.6,5.3c-2.8,0.4-5.5,0.3-8-1.1c-1.7-1-2.5-2.5-2.4-4.4c0.1-2,1.1-3.3,2.9-4.1   c3.7-1.6,7.5-0.8,11.3-0.3c0.8,0.1,0.8,0.8,0.8,1.4C646.4,287.3,646.4,288.4,646.4,289.5z"/>
	<path class="st0" d="M317.2,289.7c0,4.2,0,4.2-4.3,5c-2.9,0.5-5.7,0.4-8.3-1.1c-1.7-1-2.5-2.5-2.5-4.4c0.1-2,1.1-3.3,2.9-4.1   c3.7-1.6,7.5-0.8,11.3-0.3c0.8,0.1,0.8,0.8,0.8,1.4C317.2,287.4,317.2,288.5,317.2,289.7z"/>
	<path class="st0" d="M728.3,281.6c-1.6,0-3.2-0.2-4.8,0c-2.9,0.4-3.2-1-2.9-3.3c0.4-4.7,4.1-7.6,9-6.9c4.7,0.7,7.6,4.7,6.7,9.2   c-0.2,1.1-0.8,1-1.5,1C732.5,281.6,730.4,281.6,728.3,281.6z"/>
	<path class="st0" d="M577.8,281.6c-2.1,0-4.1-0.1-6.2,0c-1.2,0-1.5-0.4-1.5-1.5c-0.3-5.3,2.6-8.7,7.8-8.7c5.1-0.1,8.1,3.2,8,8.6   c0,1.2-0.3,1.8-1.6,1.7C582.1,281.5,579.9,281.6,577.8,281.6z"/>
	<path class="st0" d="M254.3,283.1c0-1.2,0-2.5,0-3.7c0.1-5.1,3-8,8.3-8c5.2,0,8.3,2.9,8.4,7.9c0.1,2.7,0.1,5.4,0,8   c-0.2,4.8-3.3,7.6-8.5,7.6c-5.1,0-8.1-2.9-8.2-7.8C254.3,285.8,254.3,284.5,254.3,283.1z"/>
	<path class="st0" d="M952,283.4c0,1.1,0,2.1,0,3.2c-0.1,5.4-3.1,8.4-8.5,8.4c-5.3-0.1-8.1-3-8.2-8.4c0-2.6-0.1-5.2,0-7.8   c0.1-4.4,2.8-7,7.5-7.4c4.7-0.4,8.3,1.9,9,6.1c0.3,1.9,0.1,3.9,0.1,5.9C951.9,283.4,952,283.4,952,283.4z"/>
	<path class="st0" d="M1177.1,283.1c0-1.2,0-2.5,0-3.7c0.1-5,2.9-7.9,8-8c5.2-0.1,8.5,2.7,8.6,7.7c0.1,2.8,0.1,5.5,0,8.3   c-0.2,4.8-3.4,7.6-8.5,7.6c-5.1-0.1-8.1-2.9-8.2-7.8C1177,285.8,1177.1,284.4,1177.1,283.1z"/>
	<path class="st1" d="M959.6,176.5c1.2-3.1,2.6-6.7,4-10.2c0.7-1.8,1.5-3.6,2.3-5.4c3.3-7.9-0.3-16.1-8.4-19.1   c-2-0.7-4.9-0.5-5.8-2.3c-0.9-1.8-0.4-4.3-0.4-6.6c0-9.6,0-19.1,0-28.7c0-1.9,0.4-3,2.3-3.5c1.1-0.2,2.1-0.9,3.2-1.2   c6.1-1.6,8.6-6.1,9.9-11.8c0.4-1.8-0.3-3.3-0.9-4.9c-2.2-4.9-4.4-9.7-6.6-14.6c-0.5-1.1-0.5-2.1,0.1-3.2c3.9-7.9,9.3-14.5,16-20.3   c1.4-1.2,2.5-1.3,4.1-0.6c4.9,1.9,9.9,3.6,14.5,6.2c7.5,4.1,17.9,0.8,20-8.4c1-4.4,3-8.6,4.7-12.8c0.6-1.3,1.2-1.8,2.7-1.9   c8.5-0.9,16.9-0.8,25.4-0.4c1.6,0.1,2.4,0.6,3,2.1c2,4.7,4.4,9.2,5.9,14c2.4,7.6,12.8,12.1,19.9,7.8c5-3,10.7-4.9,16.2-6.9   c1.5-0.5,2.7-0.4,3.9,0.6c6.3,5.4,11.6,11.6,15.5,19c0.6,1.1,0.7,2.1,0.2,3.3c-2.1,5-4,10.1-6.1,15.1c-2.9,7-0.3,14.4,6.6,18   c1.9,1,4,1.5,6,2.1c1.5,0.4,2.1,1.2,2.1,2.8c-0.1,11.3-0.1,22.7,0,34c0,1.6-0.6,2.4-2.1,2.8c-1.2,0.3-2.3,1-3.5,1.3   c-5.1,1.5-8,4.8-9.4,10c-0.7,2.4-0.6,4.5,0.4,6.7c2.3,4.7,4.3,9.6,6.6,14.3c0.6,1.3,0.6,2.4,0,3.7c-4,7.7-9.3,14.4-15.9,20   c-1.2,1.1-2.3,1.3-3.8,0.7c-5.3-1.9-10.5-3.9-15.5-6.6c-6.9-3.7-17.2-0.1-19.2,8.2c-1.1,4.5-3.3,8.8-4.9,13.3   c-0.5,1.4-1.2,1.8-2.7,2c-8.5,0.9-16.9,0.8-25.4,0.4c-1.6-0.1-2.4-0.7-3-2.1c-2.2-4.7-4.5-9.3-6-14.3c-2.4-7.4-12.4-11.8-19.6-7.7   c-5.2,3-11,5.1-16.7,7.1c-1.2,0.4-2.2,0.4-3.2-0.4c-6.6-5.5-12-11.9-16-19.5C959.6,178.1,959.4,177.6,959.6,176.5z M1061.6,121   c0-14.2-11.7-26-25.9-26c-14.3,0-26.2,11.7-26.1,26c0,14.1,11.9,25.9,26,25.9C1049.7,146.9,1061.5,135.1,1061.6,121z M1072.3,72.4   c-5.8,0-10.7,5.1-10.6,10.9c0.1,5.8,4.8,10.6,10.6,10.6c6.1,0,10.9-4.8,10.9-10.8C1083,77.2,1078.1,72.4,1072.3,72.4z M998.7,170   c5.9,0,10.7-4.8,10.8-10.7c0-5.9-4.8-10.8-10.7-10.8c-5.9,0-10.8,4.8-10.8,10.6C988,165,993,170,998.7,170z M1083.4,159.7   c0-5.8-5-10.9-10.7-10.9c-5.6,0-10.8,5.1-10.9,10.8c-0.1,5.9,5.1,10.9,11,10.8C1078.6,170.2,1083.4,165.4,1083.4,159.7z    M998.4,72.1c-6,0.1-10.5,4.8-10.5,10.9c0.1,5.8,4.9,10.6,10.5,10.7c5.6,0.1,11.1-5.4,11-11C1009.3,76.9,1004.2,72,998.4,72.1z"/>
	<path class="st0" d="M1061.6,121c0,14.1-11.9,25.9-26,25.9c-14.1,0-26-11.8-26-25.9c0-14.3,11.8-26,26.1-26   C1049.8,95,1061.6,106.8,1061.6,121z"/>
	<path class="st0" d="M1072.3,72.4c5.9,0,10.8,4.8,10.8,10.6c0.1,6-4.8,10.9-10.9,10.8c-5.8,0-10.5-4.8-10.6-10.6   C1061.6,77.5,1066.5,72.4,1072.3,72.4z M1072.2,89.2c3.7,0,6.5-2.5,6.5-6c0-3.3-3-6.4-6.2-6.5c-3.3-0.1-6.2,2.8-6.2,6.3   C1066.2,86.7,1068.6,89.2,1072.2,89.2z"/>
	<path class="st0" d="M998.7,170c-5.8,0-10.7-5-10.7-10.8c0-5.8,4.9-10.6,10.8-10.6c5.9,0,10.7,4.9,10.7,10.8   C1009.5,165.2,1004.6,170,998.7,170z M1004.9,159.4c0-3.6-2.4-6.2-5.8-6.3c-3.5-0.1-6.5,2.6-6.6,6c-0.1,3.3,3.1,6.6,6.4,6.6   C1002.1,165.6,1004.9,162.7,1004.9,159.4z"/>
	<path class="st0" d="M1083.4,159.7c0,5.8-4.7,10.5-10.5,10.7c-5.9,0.1-11.1-4.9-11-10.8c0.1-5.7,5.2-10.8,10.9-10.8   C1078.3,148.8,1083.3,153.9,1083.4,159.7z M1073.1,153.4c-3.4-0.2-6.5,2.5-6.7,5.9c-0.2,3.4,2.3,6.3,5.7,6.5   c3.7,0.2,6.6-2.2,6.8-5.6C1079,156.6,1076.4,153.6,1073.1,153.4z"/>
	<path class="st0" d="M998.4,72.1c5.8-0.1,10.9,4.8,11,10.5c0.1,5.6-5.3,11.1-11,11c-5.6-0.1-10.5-4.9-10.5-10.7   C987.9,76.9,992.4,72.1,998.4,72.1z M1004.7,82.7c0-3.5-2.8-6.1-6.4-6.1c-3.5,0.1-6.1,2.7-6,6.1c0,3.5,2.8,6.3,6.2,6.3   C1002,89,1004.8,86.2,1004.7,82.7z"/>
	<path class="st1" d="M1072.2,89.2c-3.6,0-6-2.5-5.9-6.1c0-3.5,2.9-6.4,6.2-6.3c3.2,0.1,6.3,3.2,6.2,6.5   C1078.7,86.7,1075.9,89.3,1072.2,89.2z"/>
	<path class="st1" d="M1004.9,159.4c0,3.4-2.8,6.2-6,6.2c-3.3,0-6.5-3.2-6.4-6.6c0.1-3.4,3.1-6,6.6-6   C1002.5,153.2,1004.9,155.8,1004.9,159.4z"/>
	<path class="st1" d="M1073.1,153.4c3.4,0.2,5.9,3.2,5.7,6.7c-0.2,3.5-3,5.9-6.8,5.6c-3.3-0.2-5.8-3.1-5.7-6.5   C1066.6,155.9,1069.6,153.2,1073.1,153.4z"/>
	<path class="st1" d="M1004.7,82.7c0,3.5-2.7,6.3-6.2,6.3c-3.4,0-6.2-2.8-6.2-6.3c0-3.4,2.6-6.1,6-6.1   C1002,76.6,1004.7,79.2,1004.7,82.7z"/>
</g>
</svg>